<?xml version="1.0" encoding="UTF-8"?>
<mxfile host="app.diagrams.net" modified="2024-01-01T00:00:00.000Z" agent="5.0" etag="xxx" version="22.1.16" type="device">
  <diagram name="MarlinEncoder Architecture" id="encoder-arch">
    <mxGraphModel dx="1422" dy="794" grid="1" gridSize="10" guides="1" tooltips="1" connect="1" arrows="1" fold="1" page="1" pageScale="1" pageWidth="900" pageHeight="1100" math="0" shadow="0">
      <root>
        <mxCell id="0" />
        <mxCell id="1" parent="0" />
        
        <!-- Input -->
        <mxCell id="input" value="Video Input&#xa;Shape: (B, C, T, H, W)&#xa;C=3, T=16, H=W=224" style="rounded=1;whiteSpace=wrap;html=1;fillColor=#dae8fc;strokeColor=#6c8ebf;fontStyle=1;fontSize=12;" vertex="1" parent="1">
          <mxGeometry x="50" y="50" width="140" height="70" as="geometry" />
        </mxCell>
        
        <!-- Mask Input -->
        <mxCell id="mask_input" value="Mask Input&#xa;Shape: (B, N)&#xa;Boolean mask" style="rounded=1;whiteSpace=wrap;html=1;fillColor=#fff2cc;strokeColor=#d6b656;fontSize=11;" vertex="1" parent="1">
          <mxGeometry x="240" y="50" width="120" height="60" as="geometry" />
        </mxCell>
        
        <!-- 3D Patch Embedding -->
        <mxCell id="patch_embed_detail" value="3D Patch Embedding" style="rounded=1;whiteSpace=wrap;html=1;fillColor=#f8cecc;strokeColor=#b85450;fontStyle=1;fontSize=14;dashed=1;" vertex="1" parent="1">
          <mxGeometry x="50" y="160" width="200" height="120" as="geometry" />
        </mxCell>
        
        <mxCell id="conv3d" value="Conv3D&#xa;kernel: (2,16,16)&#xa;stride: (2,16,16)&#xa;in: 3, out: embed_dim" style="rounded=1;whiteSpace=wrap;html=1;fillColor=#e1d5e7;strokeColor=#9673a6;fontSize=11;" vertex="1" parent="1">
          <mxGeometry x="70" y="180" width="120" height="50" as="geometry" />
        </mxCell>
        
        <mxCell id="rearrange" value="Rearrange&#xa;b d nt nh nw →&#xa;b (nt nh nw) d" style="rounded=1;whiteSpace=wrap;html=1;fillColor=#e1d5e7;strokeColor=#9673a6;fontSize=11;" vertex="1" parent="1">
          <mxGeometry x="70" y="240" width="120" height="30" as="geometry" />
        </mxCell>
        
        <!-- Positional Embedding -->
        <mxCell id="pos_embed_detail" value="SinCos Positional Embedding" style="rounded=1;whiteSpace=wrap;html=1;fillColor=#f8cecc;strokeColor=#b85450;fontStyle=1;fontSize=14;dashed=1;" vertex="1" parent="1">
          <mxGeometry x="300" y="160" width="200" height="120" as="geometry" />
        </mxCell>
        
        <mxCell id="sincos_gen" value="Generate SinCos&#xa;Embeddings&#xa;Shape: (1, N, D)" style="rounded=1;whiteSpace=wrap;html=1;fillColor=#e1d5e7;strokeColor=#9673a6;fontSize=11;" vertex="1" parent="1">
          <mxGeometry x="320" y="180" width="120" height="40" as="geometry" />
        </mxCell>
        
        <mxCell id="pos_add" value="Element-wise&#xa;Addition&#xa;x = x + pos_emb" style="rounded=1;whiteSpace=wrap;html=1;fillColor=#e1d5e7;strokeColor=#9673a6;fontSize=11;" vertex="1" parent="1">
          <mxGeometry x="320" y="230" width="120" height="40" as="geometry" />
        </mxCell>
        
        <!-- Masking Operation -->
        <mxCell id="masking_op" value="Masking Operation&#xa;emb[mask].view(b, -1, c)&#xa;Only visible patches" style="rounded=1;whiteSpace=wrap;html=1;fillColor=#fff2cc;strokeColor=#d6b656;fontStyle=1;fontSize=12;" vertex="1" parent="1">
          <mxGeometry x="550" y="180" width="140" height="60" as="geometry" />
        </mxCell>
        
        <!-- Transformer Blocks -->
        <mxCell id="transformer_stack" value="N × Transformer Blocks" style="rounded=1;whiteSpace=wrap;html=1;fillColor=#ffe6cc;strokeColor=#d79b00;fontStyle=1;fontSize=14;" vertex="1" parent="1">
          <mxGeometry x="50" y="320" width="200" height="40" as="geometry" />
        </mxCell>
        
        <mxCell id="block1" value="Block 1" style="rounded=1;whiteSpace=wrap;html=1;fillColor=#ffe6cc;strokeColor=#d79b00;fontSize=11;" vertex="1" parent="1">
          <mxGeometry x="70" y="380" width="60" height="30" as="geometry" />
        </mxCell>
        
        <mxCell id="block2" value="Block 2" style="rounded=1;whiteSpace=wrap;html=1;fillColor=#ffe6cc;strokeColor=#d79b00;fontSize=11;" vertex="1" parent="1">
          <mxGeometry x="140" y="380" width="60" height="30" as="geometry" />
        </mxCell>
        
        <mxCell id="block_dots" value="..." style="rounded=1;whiteSpace=wrap;html=1;fillColor=#ffe6cc;strokeColor=#d79b00;fontSize=11;" vertex="1" parent="1">
          <mxGeometry x="210" y="380" width="30" height="30" as="geometry" />
        </mxCell>
        
        <mxCell id="block_n" value="Block N&#xa;(depth=12)" style="rounded=1;whiteSpace=wrap;html=1;fillColor=#ffe6cc;strokeColor=#d79b00;fontSize=11;" vertex="1" parent="1">
          <mxGeometry x="70" y="420" width="80" height="40" as="geometry" />
        </mxCell>
        
        <!-- Layer Norm -->
        <mxCell id="layer_norm" value="Layer Normalization&#xa;Final output norm" style="rounded=1;whiteSpace=wrap;html=1;fillColor=#d5e8d4;strokeColor=#82b366;fontSize=12;" vertex="1" parent="1">
          <mxGeometry x="50" y="500" width="140" height="40" as="geometry" />
        </mxCell>
        
        <!-- Output -->
        <mxCell id="output" value="Encoded Features&#xa;Shape: (B, N_visible, D)&#xa;Ready for decoder" style="rounded=1;whiteSpace=wrap;html=1;fillColor=#f5f5f5;strokeColor=#666666;fontStyle=1;fontSize=12;" vertex="1" parent="1">
          <mxGeometry x="50" y="580" width="140" height="60" as="geometry" />
        </mxCell>
        
        <!-- Key Parameters -->
        <mxCell id="params" value="Key Parameters:&#xa;• embed_dim: 768&#xa;• patch_size: 16&#xa;• tubelet_size: 2&#xa;• depth: 12&#xa;• num_heads: 12&#xa;• img_size: 224&#xa;• n_frames: 16" style="rounded=1;whiteSpace=wrap;html=1;fillColor=#f8f8ff;strokeColor=#666666;fontSize=10;align=left;" vertex="1" parent="1">
          <mxGeometry x="280" y="400" width="150" height="120" as="geometry" />
        </mxCell>
        
        <!-- Flow Control -->
        <mxCell id="flow_control" value="Flow Control:&#xa;1. Training: forward()&#xa;2. Inference: extract_features()&#xa;3. Mask-based processing&#xa;4. Position embedding addition&#xa;5. Multi-head attention" style="rounded=1;whiteSpace=wrap;html=1;fillColor=#e6f3ff;strokeColor=#666666;fontSize=10;align=left;" vertex="1" parent="1">
          <mxGeometry x="450" y="400" width="170" height="100" as="geometry" />
        </mxCell>
        
        <!-- Arrows -->
        <mxCell id="arrow1" value="" style="endArrow=classic;html=1;rounded=0;exitX=0.5;exitY=1;exitDx=0;exitDy=0;entryX=0.5;entryY=0;entryDx=0;entryDy=0;" edge="1" parent="1" source="input" target="conv3d">
          <mxGeometry width="50" height="50" relative="1" as="geometry">
            <mxPoint x="120" y="130" as="sourcePoint" />
            <mxPoint x="130" y="170" as="targetPoint" />
          </mxGeometry>
        </mxCell>
        
        <mxCell id="arrow2" value="" style="endArrow=classic;html=1;rounded=0;exitX=0.5;exitY=1;exitDx=0;exitDy=0;entryX=0.5;entryY=0;entryDx=0;entryDy=0;" edge="1" parent="1" source="conv3d" target="rearrange">
          <mxGeometry width="50" height="50" relative="1" as="geometry">
            <mxPoint x="130" y="240" as="sourcePoint" />
            <mxPoint x="130" y="250" as="targetPoint" />
          </mxGeometry>
        </mxCell>
        
        <mxCell id="arrow3" value="" style="endArrow=classic;html=1;rounded=0;exitX=1;exitY=0.5;exitDx=0;exitDy=0;entryX=0;entryY=0.5;entryDx=0;entryDy=0;" edge="1" parent="1" source="rearrange" target="pos_add">
          <mxGeometry width="50" height="50" relative="1" as="geometry">
            <mxPoint x="200" y="255" as="sourcePoint" />
            <mxPoint x="310" y="250" as="targetPoint" />
          </mxGeometry>
        </mxCell>
        
        <mxCell id="arrow4" value="" style="endArrow=classic;html=1;rounded=0;exitX=1;exitY=0.5;exitDx=0;exitDy=0;entryX=0;entryY=0.5;entryDx=0;entryDy=0;" edge="1" parent="1" source="pos_add" target="masking_op">
          <mxGeometry width="50" height="50" relative="1" as="geometry">
            <mxPoint x="450" y="250" as="sourcePoint" />
            <mxPoint x="540" y="210" as="targetPoint" />
          </mxGeometry>
        </mxCell>
        
        <mxCell id="arrow5" value="" style="endArrow=classic;html=1;rounded=0;exitX=0.5;exitY=1;exitDx=0;exitDy=0;entryX=0.5;entryY=0;entryDx=0;entryDy=0;" edge="1" parent="1" source="masking_op" target="transformer_stack">
          <mxGeometry width="50" height="50" relative="1" as="geometry">
            <mxPoint x="620" y="250" as="sourcePoint" />
            <mxPoint x="150" y="310" as="targetpoint" />
            <Array as="points">
              <mxPoint x="620" y="290" />
              <mxPoint x="150" y="290" />
            </Array>
          </mxGeometry>
        </mxCell>
        
        <mxCell id="arrow6" value="" style="endArrow=classic;html=1;rounded=0;exitX=0.5;exitY=1;exitDx=0;exitDy=0;entryX=0.5;entryY=0;entryDx=0;entryDy=0;" edge="1" parent="1" source="transformer_stack" target="block1">
          <mxGeometry width="50" height="50" relative="1" as="geometry">
            <mxPoint x="150" y="370" as="sourcePoint" />
            <mxPoint x="100" y="370" as="targetPoint" />
          </mxGeometry>
        </mxCell>
        
        <mxCell id="arrow7" value="" style="endArrow=classic;html=1;rounded=0;exitX=1;exitY=0.5;exitDx=0;exitDy=0;entryX=0;entryY=0.5;entryDx=0;entryDy=0;" edge="1" parent="1" source="block1" target="block2">
          <mxGeometry width="50" height="50" relative="1" as="geometry">
            <mxPoint x="140" y="395" as="sourcePoint" />
            <mxPoint x="150" y="395" as="targetPoint" />
          </mxGeometry>
        </mxCell>
        
        <mxCell id="arrow8" value="" style="endArrow=classic;html=1;rounded=0;exitX=0.5;exitY=1;exitDx=0;exitDy=0;entryX=0.5;entryY=0;entryDx=0;entryDy=0;" edge="1" parent="1" source="block_n" target="layer_norm">
          <mxGeometry width="50" height="50" relative="1" as="geometry">
            <mxPoint x="110" y="470" as="sourcePoint" />
            <mxPoint x="120" y="490" as="targetPoint" />
          </mxGeometry>
        </mxCell>
        
        <mxCell id="arrow9" value="" style="endArrow=classic;html=1;rounded=0;exitX=0.5;exitY=1;exitDx=0;exitDy=0;entryX=0.5;entryY=0;entryDx=0;entryDy=0;" edge="1" parent="1" source="layer_norm" target="output">
          <mxGeometry width="50" height="50" relative="1" as="geometry">
            <mxPoint x="120" y="550" as="sourcePoint" />
            <mxPoint x="120" y="570" as="targetPoint" />
          </mxGeometry>
        </mxCell>
        
        <!-- Mask connection -->
        <mxCell id="arrow_mask" value="" style="endArrow=classic;html=1;rounded=0;exitX=1;exitY=1;exitDx=0;exitDy=0;entryX=0.5;entryY=0;entryDx=0;entryDy=0;dashed=1;" edge="1" parent="1" source="mask_input" target="masking_op">
          <mxGeometry width="50" height="50" relative="1" as="geometry">
            <mxPoint x="370" y="120" as="sourcePoint" />
            <mxPoint x="620" y="170" as="targetPoint" />
            <Array as="points">
              <mxPoint x="620" y="140" />
            </Array>
          </mxGeometry>
        </mxCell>
        
      </root>
    </mxGraphModel>
  </diagram>
</mxfile> 